<svg width="80" height="80" viewBox="0 0 80 80" fill="none" xmlns="http://www.w3.org/2000/svg">
<path d="M46.6673 49.9993L30.0007 66.666L13.334 49.9993" stroke="white" stroke-width="4" stroke-linecap="round" stroke-linejoin="round"/>
<path d="M30 66.666L30 31.666C30 29.2584 30.4742 26.8745 31.3955 24.6502C32.3169 22.4259 33.6673 20.4048 35.3697 18.7024C37.0721 17 39.0932 15.6496 41.3175 14.7282C43.5418 13.8069 45.9258 13.3327 48.3333 13.3327C50.7409 13.3327 53.1249 13.8069 55.3492 14.7282C57.5735 15.6496 59.5946 17 61.297 18.7024C62.9994 20.4048 64.3498 22.4259 65.2711 24.6502C66.1925 26.8745 66.6667 29.2584 66.6667 31.666V43.3327" stroke="white" stroke-width="4" stroke-linecap="round" stroke-linejoin="round"/>
</svg>
