<svg width="116" height="32" viewBox="0 0 116 32" fill="none" xmlns="http://www.w3.org/2000/svg">
<path d="M28.8813 30.748H14.0166H6.93451V25.7003H1.89844M28.8813 30.748V14.6191L30.9273 11.2126V8.11363H28.8813H12.5313M28.8813 30.748H30.9273M14.0166 23.8855C12.8117 24.407 11.9662 25.6278 11.9662 27.0506C11.9662 28.4734 12.8117 29.6942 14.0166 30.2157C14.4183 30.3896 14.86 30.4857 15.3236 30.4857C17.1779 30.4857 18.681 28.9478 18.681 27.0506C18.681 25.1534 17.1779 23.6154 15.3236 23.6154C14.86 23.6154 14.4183 23.7116 14.0166 23.8855ZM14.0166 23.8855V14.6191L10.8541 11.2126V8.11363H12.5313M12.5313 8.11363V5.53308L30.2731 2.25195" stroke="#062E1A" stroke-width="2.51211" stroke-linecap="square"/>
<path d="M115.1 25.4171C114.719 25.7289 114.251 25.9627 113.697 26.1186C113.16 26.2745 112.588 26.3525 111.982 26.3525C110.458 26.3525 109.28 25.9541 108.448 25.1573C107.617 24.3604 107.201 23.1998 107.201 21.6755V9.22949H110.449V12.3995H114.165V14.9978H110.449V21.5975C110.449 22.2731 110.614 22.7928 110.943 23.1565C111.289 23.503 111.766 23.6762 112.372 23.6762C113.099 23.6762 113.706 23.4857 114.191 23.1046L115.1 25.4171Z" fill="#062E1A"/>
<path d="M100.832 12.2949H104.08V26.1699H100.832V12.2949ZM102.469 10.0083C101.88 10.0083 101.387 9.82645 100.988 9.46269C100.59 9.0816 100.391 8.6139 100.391 8.05959C100.391 7.50528 100.59 7.04624 100.988 6.68247C101.387 6.30138 101.88 6.11084 102.469 6.11084C103.058 6.11084 103.552 6.29272 103.95 6.65649C104.349 7.00293 104.548 7.44465 104.548 7.98164C104.548 8.55327 104.349 9.03829 103.95 9.4367C103.569 9.81779 103.076 10.0083 102.469 10.0083Z" fill="#062E1A"/>
<path d="M91.4215 12.1393C92.7727 12.1393 93.9766 12.4337 95.0332 13.0227C96.1072 13.6116 96.9473 14.4431 97.5536 15.5171C98.1599 16.5911 98.463 17.8296 98.463 19.2327C98.463 20.6358 98.1599 21.883 97.5536 22.9743C96.9473 24.0483 96.1072 24.8797 95.0332 25.4687C93.9766 26.0576 92.7727 26.3521 91.4215 26.3521C90.4688 26.3521 89.594 26.1876 88.7972 25.8584C88.0177 25.5293 87.3595 25.0356 86.8225 24.3774V26.1702H83.7305V6.89062H86.9784V13.9841C87.5327 13.3778 88.1823 12.9188 88.9271 12.607C89.6893 12.2952 90.5208 12.1393 91.4215 12.1393ZM91.0578 23.5719C92.253 23.5719 93.2317 23.1735 93.9939 22.3767C94.7734 21.5799 95.1631 20.5319 95.1631 19.2327C95.1631 17.9335 94.7734 16.8855 93.9939 16.0887C93.2317 15.2919 92.253 14.8935 91.0578 14.8935C90.2783 14.8935 89.5767 15.0754 88.9531 15.4391C88.3295 15.7856 87.8358 16.2879 87.4721 16.9462C87.1083 17.6044 86.9264 18.3666 86.9264 19.2327C86.9264 20.0988 87.1083 20.861 87.4721 21.5192C87.8358 22.1775 88.3295 22.6885 88.9531 23.0522C89.5767 23.3987 90.2783 23.5719 91.0578 23.5719Z" fill="#062E1A"/>
<path d="M76.424 14.3218C77.3594 12.8667 79.005 12.1392 81.3609 12.1392V15.2312C81.0837 15.1792 80.8325 15.1532 80.6074 15.1532C79.3428 15.1532 78.3555 15.5257 77.6453 16.2705C76.935 16.998 76.5799 18.0547 76.5799 19.4405V26.1701H73.332V12.2951H76.424V14.3218Z" fill="#062E1A"/>
<path d="M70.2346 12.2949V26.17H67.1426V24.4031C66.6229 25.0267 65.9733 25.5118 65.1938 25.8582C64.4143 26.1873 63.5742 26.3519 62.6734 26.3519C60.8199 26.3519 59.3562 25.8409 58.2822 24.8189C57.2256 23.7795 56.6973 22.2465 56.6973 20.2198V12.2949H59.9452V19.7781C59.9452 21.0253 60.2223 21.9607 60.7766 22.5843C61.3483 23.1906 62.1538 23.4937 63.1931 23.4937C64.3537 23.4937 65.2718 23.1386 65.9473 22.4284C66.6402 21.7009 66.9867 20.6615 66.9867 19.3104V12.2949H70.2346Z" fill="#062E1A"/>
<path d="M48.4369 26.352C46.9992 26.352 45.7087 26.0489 44.5654 25.4426C43.4221 24.8363 42.53 23.9962 41.8891 22.9222C41.2482 21.8309 40.9277 20.6011 40.9277 19.2326C40.9277 17.8641 41.2482 16.6429 41.8891 15.569C42.53 14.495 43.4135 13.6549 44.5394 13.0486C45.6827 12.4423 46.9818 12.1392 48.4369 12.1392C49.8054 12.1392 51.0006 12.4163 52.0226 12.9706C53.0619 13.5249 53.8414 14.3218 54.3611 15.3611L51.8667 16.8162C51.4683 16.1752 50.9659 15.6989 50.3597 15.3871C49.7707 15.058 49.1211 14.8934 48.4109 14.8934C47.1984 14.8934 46.1937 15.2918 45.3969 16.0886C44.6 16.8681 44.2016 17.9161 44.2016 19.2326C44.2016 20.5491 44.5914 21.6057 45.3709 22.4026C46.1677 23.1821 47.181 23.5718 48.4109 23.5718C49.1211 23.5718 49.7707 23.4159 50.3597 23.1041C50.9659 22.775 51.4683 22.29 51.8667 21.649L54.3611 23.1041C53.8241 24.1434 53.036 24.9489 51.9966 25.5206C50.9746 26.0749 49.788 26.352 48.4369 26.352Z" fill="#062E1A"/>
</svg>
