<svg width="80" height="80" viewBox="0 0 80 80" fill="none" xmlns="http://www.w3.org/2000/svg">
<path d="M49.9993 6.66602H29.9993C28.1584 6.66602 26.666 8.1584 26.666 9.99935V16.666C26.666 18.507 28.1584 19.9993 29.9993 19.9993H49.9993C51.8403 19.9993 53.3327 18.507 53.3327 16.666V9.99935C53.3327 8.1584 51.8403 6.66602 49.9993 6.66602Z" stroke="white" stroke-width="4" stroke-linecap="round" stroke-linejoin="round"/>
<path d="M26.6673 13.334H20.0007C18.2325 13.334 16.5368 14.0364 15.2866 15.2866C14.0364 16.5368 13.334 18.2325 13.334 20.0007V66.6673C13.334 68.4354 14.0364 70.1311 15.2866 71.3814C16.5368 72.6316 18.2325 73.334 20.0007 73.334H60.0006C61.7688 73.334 63.4645 72.6316 64.7147 71.3814C65.9649 70.1311 66.6673 68.4354 66.6673 66.6673V65.0006" stroke="white" stroke-width="4" stroke-linecap="round" stroke-linejoin="round"/>
<path d="M53.334 13.334H60.0007C61.1697 13.3352 62.3179 13.6438 63.3301 14.2289C64.3423 14.8139 65.1828 15.6549 65.7673 16.6673" stroke="white" stroke-width="4" stroke-linecap="round" stroke-linejoin="round"/>
<path d="M26.666 60H29.9993" stroke="white" stroke-width="4" stroke-linecap="round" stroke-linejoin="round"/>
<path d="M71.2593 42.0872C72.5871 40.7593 73.3331 38.9584 73.3331 37.0805C73.3331 35.2026 72.5871 33.4017 71.2593 32.0738C69.9314 30.746 68.1305 30 66.2526 30C64.3747 30 62.5738 30.746 61.2459 32.0738L47.8793 45.4472C47.0868 46.2392 46.5067 47.2183 46.1926 48.2938L43.4026 57.8605C43.3189 58.1473 43.3139 58.4514 43.3881 58.7408C43.4622 59.0302 43.6128 59.2944 43.8241 59.5057C44.0354 59.7169 44.2995 59.8675 44.589 59.9417C44.8784 60.0158 45.1824 60.0108 45.4693 59.9272L55.0359 57.1372C56.1115 56.8231 57.0905 56.243 57.8826 55.4505L71.2593 42.0872Z" stroke="white" stroke-width="4" stroke-linecap="round" stroke-linejoin="round"/>
</svg>
